<svg id="Layer_1" data-name="Layer 1" xmlns="http://www.w3.org/2000/svg" viewBox="0 0 566.91 174.49"><path d="M184.33,70.48h-8.52V104h5.26V91.57h3.31c3.43,0,6.12-.95,8-2.85s2.88-4.54,2.88-8q0-4.87-2.86-7.58T184.33,70.48ZM184.19,87h-3.12V75h3.07a6.1,6.1,0,0,1,4.47,1.44,6,6,0,0,1,1.44,4.43Q190.05,87,184.19,87Z" fill="#231f20"/><polygon points="207.56 89.12 218.91 89.12 218.91 84.38 207.56 84.38 207.56 75.22 219.72 75.22 219.72 70.48 202.16 70.48 202.16 104.01 219.86 104.01 220.57 99.27 207.56 99.27 207.56 89.12" fill="#231f20"/><path d="M246,85.41a10.21,10.21,0,0,0,1.28-5.12,9.14,9.14,0,0,0-2.93-7.23q-2.94-2.58-8.19-2.58h-8.61V104h5.25V90.63h3l.81,0,1.09-.07L243,104h5.68l-6.29-15A9.26,9.26,0,0,0,246,85.41Zm-5.49-.68c-1,.89-2.61,1.34-4.82,1.34h-2.89V75h2.89a7.23,7.23,0,0,1,4.78,1.34A5.12,5.12,0,0,1,242,80.48,5.4,5.4,0,0,1,240.48,84.73Z" fill="#231f20"/><polygon points="277 70.48 271.37 70.48 260.78 84.61 260.78 70.48 255.38 70.48 255.38 104.01 260.78 104.01 260.78 91.24 263.76 87.57 272.13 104.01 277.95 104.01 267.31 83.39 277 70.48" fill="#231f20"/><rect x="283.77" y="70.48" width="5.39" height="33.53" fill="#231f20"/><polygon points="314.8 94.81 303.59 70.48 298.24 70.48 298.24 104.01 303.07 104.01 303.07 79.68 314.28 104.01 319.63 104.01 319.63 70.48 314.8 70.48 314.8 94.81" fill="#231f20"/><path d="M344.72,87.32a13.23,13.23,0,0,0-4.37-2.24l-3.69-1.22a6.13,6.13,0,0,1-2.94-1.8,6.12,6.12,0,0,1,.34-6.74,4.39,4.39,0,0,1,3.4-1.27,4,4,0,0,1,3.15,1.22,9.26,9.26,0,0,1,1.77,4.13l5.06-.8c-.47-3-1.51-5.29-3.12-6.76a9.66,9.66,0,0,0-6.76-2.21,10.33,10.33,0,0,0-7.38,2.63,10.16,10.16,0,0,0-1,12.75,11.63,11.63,0,0,0,5.63,3.55l3.41,1.13a6.4,6.4,0,0,1,3.19,2,5.68,5.68,0,0,1,1,3.5,5.55,5.55,0,0,1-1.23,3.85,4.4,4.4,0,0,1-3.45,1.36A4.92,4.92,0,0,1,333.84,99a8,8,0,0,1-1.58-4.61h-5.4q.72,10.49,10.79,10.48a10.34,10.34,0,0,0,7.43-2.66,9.34,9.34,0,0,0,2.79-7.11,12.12,12.12,0,0,0-.76-4.56A7.89,7.89,0,0,0,344.72,87.32Z" fill="#231f20"/><polygon points="374.69 89.12 386.05 89.12 386.05 84.38 374.69 84.38 374.69 75.22 386.85 75.22 386.85 70.48 369.3 70.48 369.3 104.01 386.99 104.01 387.7 99.27 374.69 99.27 374.69 89.12" fill="#231f20"/><polygon points="404.54 97.72 398.06 70.48 392.24 70.48 401.37 104.01 407.48 104.01 416.56 70.48 410.98 70.48 404.54 97.72" fill="#231f20"/><polygon points="425.64 89.12 437 89.12 437 84.38 425.64 84.38 425.64 75.22 437.8 75.22 437.8 70.48 420.25 70.48 420.25 104.01 437.94 104.01 438.65 99.27 425.64 99.27 425.64 89.12" fill="#231f20"/><path d="M464.06,85.41a10.21,10.21,0,0,0,1.27-5.12,9.1,9.1,0,0,0-2.93-7.23c-2-1.72-4.68-2.58-8.18-2.58H445.6V104h5.26V90.63h3l.8,0,1.09-.07L461.08,104h5.67l-6.29-15A9.29,9.29,0,0,0,464.06,85.41Zm-5.49-.68q-1.51,1.33-4.83,1.34h-2.88V75h2.88a7.21,7.21,0,0,1,4.78,1.34,5.12,5.12,0,0,1,1.56,4.11A5.39,5.39,0,0,1,458.57,84.73Z" fill="#231f20"/><rect x="473.47" y="70.48" width="5.39" height="33.53" fill="#231f20"/><polygon points="485.15 75.22 493.1 75.22 493.1 104.01 498.49 104.01 498.49 75.22 506.44 75.22 506.44 70.48 485.15 70.48 485.15 75.22" fill="#231f20"/><polygon points="511.84 70.48 511.84 75.22 519.78 75.22 519.78 104.01 525.17 104.01 525.17 75.22 533.12 75.22 533.12 70.48 511.84 70.48" fill="#231f20"/><rect x="533.12" y="70.48" height="4.74" fill="#231f20"/><rect x="353.66" y="85.3" width="9.74" height="4.74" fill="#231f20"/><path d="M33.78,33.79V140.71H140.7V33.79Zm47,54.27H60v22.29H53.66V81.75H74.45V68H53.57V61.7H80.81Zm38.58,20.21H91.6V102h27.79Zm0-20.16H91.6V81.8h27.79Zm0-20H91.6V61.8h27.79Z" fill="#231f20"/></svg>